<svg width="31" height="30" viewBox="0 0 31 30" fill="none" xmlns="http://www.w3.org/2000/svg">
<path d="M20.958 15.9375H15.333L24.708 29.0625H30.333L20.958 15.9375Z" fill="#204EFB"/>
<path d="M24.708 15C24.708 9.82233 20.5107 5.625 15.333 5.625C10.1553 5.625 5.95801 9.82233 5.95801 15C5.95801 20.1777 10.1553 24.375 15.333 24.375V30C7.04874 30 0.333008 23.2843 0.333008 15C0.333008 6.71573 7.04874 0 15.333 0C23.6173 0 30.333 6.71573 30.333 15C30.333 23.2843 23.6173 30 15.333 30V24.375C20.5107 24.375 24.708 20.1777 24.708 15Z" fill="#204EFB"/>
</svg>
