<svg width="28" height="28" viewBox="0 0 28 28" fill="none" xmlns="http://www.w3.org/2000/svg">
<path d="M5.25 12.25C6.2165 12.25 7 13.0335 7 14C7 14.9665 6.2165 15.75 5.25 15.75C4.2835 15.75 3.5 14.9665 3.5 14C3.5 13.0335 4.2835 12.25 5.25 12.25Z" fill="#B0B0B0"/>
<path d="M14 12.25C14.9665 12.25 15.75 13.0335 15.75 14C15.75 14.9665 14.9665 15.75 14 15.75C13.0335 15.75 12.25 14.9665 12.25 14C12.25 13.0335 13.0335 12.25 14 12.25Z" fill="#B0B0B0"/>
<path d="M22.75 12.25C23.7165 12.25 24.5 13.0335 24.5 14C24.5 14.9665 23.7165 15.75 22.75 15.75C21.7835 15.75 21 14.9665 21 14C21 13.0335 21.7835 12.25 22.75 12.25Z" fill="#B0B0B0"/>
</svg>
