<svg width="22" height="22" viewBox="0 0 22 22" fill="none" xmlns="http://www.w3.org/2000/svg">
<path d="M9.96875 2.75879C13.5996 2.93966 16.4897 5.94193 16.4932 9.62207C16.4946 11.1484 15.9985 12.5584 15.1592 13.7002L18.9482 17.4902C19.3509 17.893 19.3509 18.5455 18.9482 18.9482C18.5455 19.3509 17.893 19.3509 17.4902 18.9482L13.7022 15.1611C12.5625 16.0047 11.1541 16.5054 9.62793 16.5068L9.27442 16.498C5.6435 16.3173 2.75342 13.315 2.75 9.63477C2.74655 5.83593 5.82027 2.75352 9.61524 2.75L9.96875 2.75879ZM9.61719 4.8125C6.96331 4.81497 4.81013 6.97109 4.8125 9.63281C4.81497 12.2946 6.97204 14.4468 9.62598 14.4443C12.2799 14.4419 14.4331 12.2858 14.4307 9.62402C14.4282 6.96229 12.271 4.81013 9.61719 4.8125Z" fill="#EAEAEA"/>
</svg>
